<svg viewBox="0 0 299 294" xmlns="http://www.w3.org/2000/svg" xml:space="preserve" width="120" height="120" style="fill-rule:evenodd;clip-rule:evenodd;stroke-linejoin:round;stroke-miterlimit:2;background:#222;"><g fill="white" transform="translate(20 24)"><path d="M286.152 183.038c3.668-6.457 4.989-11.593 4.989-15.262 0-2.348-.587-4.549-1.321-6.016-1.467-2.642-3.228-3.669-5.576-.441-9.098 12.327-33.311 56.351-40.355 74.254-1.468 3.962-1.468 6.31-.441 8.952.587 1.614 2.495 4.255 3.963 6.31 2.054 2.935 3.962 2.935 8.217 1.907 8.365-2.201 24.067-5.87 30.964-5.723 3.375 0 3.669-1.467 2.935-3.228-1.908-4.549-6.164-7.631-14.235-7.044-5.282.44-12.326 1.467-19.517 3.228 8.071-17.169 17.61-33.604 30.377-56.937ZM319.61 185.826c0 4.549 3.962 8.952 8.658 8.952 3.668 0 5.87-3.376 5.87-7.338 0-4.255-3.963-9.538-8.071-9.538-3.376 0-6.457 3.815-6.457 7.924Zm10.859 51.508c1.908-3.815 2.054-7.484.734-9.979-1.321-2.641-3.229-2.935-4.403-.293-4.549 9.978-12.18 19.81-18.049 19.81-1.615 0-2.202-1.32-2.202-3.668s.734-5.43 2.055-8.805c2.494-5.87 9.245-16.876 12.033-23.186 3.815-7.337 2.641-13.647-.147-16.582-1.907-2.201-3.668-1.908-5.87 1.027-5.429 7.631-14.821 24.653-18.49 34.926-1.174 3.815-1.761 6.897-1.761 9.685 0 7.337 3.963 12.473 12.914 12.473 8.658 0 18.784-6.163 23.186-15.408Z" style="fill-rule:nonzero" transform="translate(-241.11 -159.305)"/><path d="M326.507 236.453c0 10.126 6.457 16.289 14.381 16.289s14.675-4.842 18.783-9.538c2.202 5.723 7.485 9.538 13.061 9.538 13.354 0 22.452-12.62 24.506-17.022 1.468-3.375 2.202-5.283 1.468-8.658-1.027-3.962-4.256-3.669-6.017-.147-5.283 10.566-12.767 20.251-18.49 20.251-2.494 0-3.962-3.082-3.962-7.484 0-3.229.881-7.044 2.642-11.006 5.136-11.153 12.62-24.653 19.37-35.659 4.256 0 6.75.146 9.539.146 3.375 0 4.549-1.32 3.081-3.962-1.174-1.907-3.668-3.962-8.217-4.842 1.907-4.256 2.641-7.484 2.641-10.273 0-2.054-.44-3.962-1.174-5.723-1.321-3.081-3.669-3.668-6.163-.293-2.495 3.228-6.017 9.245-10.419 16.582-9.979.44-13.501.881-17.463 1.027 2.054-4.402 2.641-7.63 2.641-10.565 0-1.761-.44-3.669-1.174-5.577-1.32-3.375-3.668-3.375-6.163-.147-2.788 3.963-7.044 10.419-10.712 16.876-4.256.147-6.898.147-10.273.147s-5.283 1.174-3.081 4.109c1.32 1.761 4.108 3.522 8.511 4.402-5.723 10.273-11.593 22.012-14.528 29.203-2.054 4.696-2.788 8.951-2.788 12.326Zm50.04-42.703c-6.163 11.3-12.913 24.654-16.289 32.578-4.549 10.125-12.326 20.838-17.903 20.838-2.788 0-4.255-3.082-4.255-7.631 0-3.228.88-6.897 2.641-10.859 5.136-11.593 14.381-27.882 18.343-33.752 3.816-.146 7.044-.44 17.463-1.174Z" style="fill-rule:nonzero" transform="translate(-241.11 -159.305)"/><path d="M443.023 171.885c0-3.815-1.614-7.924-4.842-10.712-2.788-2.642-5.43-1.761-8.218 1.027-14.381 15.115-30.964 42.263-36.687 66.623a35.18 35.18 0 0 0-1.027 8.364c0 10.126 5.576 15.262 14.528 15.262 12.327 0 23.186-12.033 25.387-16.436 1.908-3.962 2.055-7.337 1.468-9.538-1.028-3.816-4.256-3.816-6.164-.147-5.576 10.566-14.087 20.398-20.838 20.398-1.907 0-2.788-2.495-2.788-6.017 0-5.136 1.908-11.74 4.843-19.224 12.913-8.658 28.909-25.974 33.458-43.436.734-2.495.88-4.109.88-6.164Zm-8.217 3.669c.88.587-1.028 7.044-6.017 15.408-3.375 5.723-8.365 12.474-14.675 18.637 1.028-2.495 7.484-13.501 11.3-19.958 4.989-8.658 8.805-14.381 9.392-14.087Z" style="fill-rule:nonzero" transform="translate(-241.11 -159.305)"/><path d="M463.274 200.501c1.614 1.32-1.467 8.217-5.723 13.941-2.935 3.962-7.631 8.364-11.153 8.364-1.027 0-2.054-.293-3.228-1.027 7.044-14.088 17.903-23.039 20.104-21.278Zm11.006 5.87c0-1.908-.587-4.109-1.467-5.43-2.055-2.935-4.99-5.283-9.098-7.631-1.468-.88-3.082-1.174-5.137-1.174-8.511 0-20.397 7.778-28.028 23.333-3.082 5.87-4.549 11.593-4.549 16.876 0 11.739 7.484 20.691 21.131 20.544 11.446-.147 23.186-7.044 29.349-15.995 2.642-3.962 2.495-8.218 2.055-9.539-1.174-2.935-3.082-2.641-4.696-.293-6.017 9.098-15.849 19.957-27.001 19.957-4.403 0-7.044-4.549-7.044-11.006 0-2.641.44-5.723 1.321-8.658 3.375 2.201 6.897 3.229 10.419 3.229 12.913 0 22.745-15.409 22.745-24.213ZM241.834 353.997c1.614 2.642 2.642 4.99 3.669 6.457 1.908 2.788 4.256 2.788 7.777 1.761 8.072-2.201 23.773-6.017 31.551-5.87 3.082 0 3.522-1.174 2.788-3.228-1.761-4.843-5.87-7.191-13.794-6.897-4.696.293-13.941 1.907-19.958 3.522 2.935-6.604 6.017-12.621 10.126-20.398 7.924-2.055 18.196-3.815 25.387-3.815 3.375 0 3.669-1.468 2.935-3.376-1.614-4.696-5.43-7.337-13.501-7.043-2.054.146-4.549.293-7.63.733 6.897-12.473 13.647-24.653 18.49-31.99 2.201-.294 3.668-.587 5.869-1.028 6.897-1.32 14.822-2.788 22.159-2.788 2.788 0 3.815-1.321 3.228-2.935-1.907-5.136-5.576-7.777-12.326-7.631-3.816 0-7.925.734-12.914 1.468-7.044 1.174-14.821 2.054-22.892 2.054-2.201 0-3.816.881-3.375 2.935.733 2.788 2.494 5.136 5.869 7.338-12.18 18.93-26.267 45.491-32.871 62.807-1.467 4.109-1.761 6.017-.587 7.924Z" style="fill-rule:nonzero" transform="translate(-241.11 -159.305)"/><path d="M301.707 324.795c-5.283 7.337-7.925 15.555-7.925 21.865 0 8.658 4.696 14.968 13.354 14.968 5.87 0 12.474-4.549 16.729-8.658 1.174 5.43 5.43 9.245 12.767 9.245 8.952 0 18.344-7.777 22.159-15.849 2.054-4.255 1.174-8.217.587-9.538-1.467-3.082-2.788-2.935-4.402 0-4.843 9.538-12.18 19.517-17.463 19.517-1.468 0-2.055-1.32-2.055-3.522 0-9.832 12.327-25.827 16.142-33.898 3.816-7.631 2.495-14.088 0-17.023-1.761-2.054-4.255-1.907-6.016 1.028l-2.788 4.549c-1.321-3.816-4.549-6.457-9.832-6.457-7.484 0-19.518 6.897-31.257 23.773Zm7.337 30.376c-1.467 0-2.054-1.761-2.054-4.402 0-4.696 2.494-12.474 6.897-19.371 7.484-12.033 17.609-21.278 20.544-21.278 1.468 0 1.761 1.027 1.761 2.788 0 3.816-2.641 11.006-8.364 20.985-7.191 12.327-13.941 21.278-18.784 21.278Z" style="fill-rule:nonzero" transform="translate(-241.11 -159.305)"/><path d="M418.517 337.415c0-3.228-2.642-3.228-4.549-.734-5.724 7.925-13.061 14.088-22.159 19.664 4.843-11.152 10.712-21.865 15.408-31.11 3.669-7.337 5.283-11.299 5.283-15.262 0-3.081-1.027-5.869-2.348-7.484-1.908-2.201-4.549-2.348-6.31 1.028-.88 1.614-1.761 3.081-2.348 4.108-1.321-3.521-4.549-6.163-9.392-6.163-14.381 0-39.181 24.213-39.181 45.198 0 8.805 4.843 14.821 13.207 14.821 3.962 0 7.778-1.467 11.006-3.668l-1.907 4.842c-17.903 6.164-32.138 21.279-32.138 34.486 0 4.549 2.201 8.364 4.256 11.446 3.081 4.109 6.75 4.696 10.272 3.375 11.886-5.576 22.599-27.882 30.376-46.812 12.034-4.402 22.159-10.272 27.736-18.93 2.201-3.375 2.788-6.457 2.788-8.805Zm-50.628 17.903c-1.32 0-1.907-1.908-1.907-4.696 0-17.022 22.598-40.062 27.588-40.062 1.027 0 1.467.881 1.467 2.642 0 3.815-2.641 11.006-8.364 20.985-7.191 12.326-14.088 21.278-18.784 21.131Zm3.082 17.023a135.666 135.666 0 0 1-8.952 18.93c-4.549 7.924-8.217 12.327-9.538 11.299-1.468-1.32.44-8.218 4.696-15.408 3.081-5.136 7.631-10.419 13.794-14.821Z" style="fill-rule:nonzero" transform="translate(-241.11 -159.305)"/><path d="M463.568 280.918c0-3.816-1.614-7.925-4.843-10.713-2.788-2.641-5.429-1.761-8.218 1.027-14.381 15.115-30.963 42.263-36.686 66.623a35.13 35.13 0 0 0-1.027 8.365c0 10.125 5.576 15.261 14.527 15.261 12.327 0 23.186-12.033 25.388-16.435 1.907-3.962 2.054-7.338 1.467-9.539-1.027-3.815-4.256-3.815-6.163-.146-5.577 10.565-14.088 20.397-20.838 20.397-1.908 0-2.788-2.494-2.788-6.016 0-5.136 1.907-11.74 4.842-19.224 12.914-8.658 28.909-25.974 33.458-43.437.734-2.495.881-4.109.881-6.163Zm-8.218 3.668c.88.587-1.027 7.044-6.017 15.409-3.375 5.723-8.364 12.473-14.674 18.636 1.027-2.494 7.484-13.5 11.299-19.957 4.99-8.658 8.805-14.381 9.392-14.088Z" style="fill-rule:nonzero" transform="translate(-241.11 -159.305)"/><path d="M483.819 309.533c1.614 1.321-1.468 8.218-5.723 13.941-2.935 3.962-7.631 8.365-11.153 8.365-1.027 0-2.055-.294-3.228-1.028 7.043-14.087 17.903-23.039 20.104-21.278Zm11.006 5.87c0-1.908-.587-4.109-1.468-5.43-2.054-2.934-4.989-5.282-9.098-7.63-1.467-.881-3.082-1.174-5.136-1.174-8.511 0-20.398 7.777-28.029 23.332-3.081 5.87-4.549 11.593-4.549 16.876 0 11.74 7.484 20.691 21.132 20.545 11.446-.147 23.186-7.044 29.349-15.996 2.641-3.962 2.495-8.218 2.054-9.538-1.174-2.935-3.081-2.642-4.696-.294-6.016 9.099-15.848 19.958-27.001 19.958-4.402 0-7.044-4.549-7.044-11.006 0-2.642.441-5.723 1.321-8.658 3.375 2.201 6.897 3.228 10.419 3.228 12.914 0 22.746-15.408 22.746-24.213Z" style="fill-rule:nonzero" transform="translate(-241.11 -159.305)"/></g></svg>
